<mxfile host="app.diagrams.net" modified="2022-07-07T15:03:25.304Z" agent="5.0 (Macintosh; Intel Mac OS X 10_15_7) AppleWebKit/537.36 (KHTML, like Gecko) Chrome/103.0.5060.53 Safari/537.36" etag="jWPhqmGZGUzP3lkY4KkW" version="20.0.4" type="github">
  <diagram id="hhEjcbr4WMstEu4dQbVw" name="Page-1">
    <mxGraphModel dx="1773" dy="593" grid="1" gridSize="10" guides="1" tooltips="1" connect="1" arrows="1" fold="1" page="1" pageScale="1" pageWidth="827" pageHeight="1169" math="0" shadow="0">
      <root>
        <mxCell id="0" />
        <mxCell id="1" parent="0" />
        <mxCell id="SfzJ7EL2owrFxrRgeNwD-1" value="Contributor has a proposal" style="rounded=1;whiteSpace=wrap;html=1;fillColor=#d5e8d4;strokeColor=#82b366;" parent="1" vertex="1">
          <mxGeometry x="320" y="90" width="120" height="60" as="geometry" />
        </mxCell>
        <mxCell id="SfzJ7EL2owrFxrRgeNwD-9" style="edgeStyle=orthogonalEdgeStyle;rounded=0;orthogonalLoop=1;jettySize=auto;html=1;entryX=0.5;entryY=0;entryDx=0;entryDy=0;fontSize=24;" parent="1" source="SfzJ7EL2owrFxrRgeNwD-4" target="SfzJ7EL2owrFxrRgeNwD-8" edge="1">
          <mxGeometry relative="1" as="geometry" />
        </mxCell>
        <mxCell id="SfzJ7EL2owrFxrRgeNwD-4" value="Contributor Starts a Pre-Draft Resolution" style="rounded=1;whiteSpace=wrap;html=1;" parent="1" vertex="1">
          <mxGeometry x="320" y="220" width="120" height="60" as="geometry" />
        </mxCell>
        <mxCell id="SfzJ7EL2owrFxrRgeNwD-5" value="&lt;font style=&quot;font-size: 24px;&quot;&gt;Contributor Proposal Process&lt;/font&gt;" style="text;html=1;strokeColor=none;fillColor=none;align=center;verticalAlign=middle;whiteSpace=wrap;rounded=0;" parent="1" vertex="1">
          <mxGeometry x="200" y="10" width="345" height="30" as="geometry" />
        </mxCell>
        <mxCell id="SfzJ7EL2owrFxrRgeNwD-6" value="" style="endArrow=classic;html=1;rounded=0;fontSize=24;exitX=0.5;exitY=1;exitDx=0;exitDy=0;entryX=0.5;entryY=0;entryDx=0;entryDy=0;" parent="1" source="SfzJ7EL2owrFxrRgeNwD-1" target="SfzJ7EL2owrFxrRgeNwD-4" edge="1">
          <mxGeometry width="50" height="50" relative="1" as="geometry">
            <mxPoint x="390" y="250" as="sourcePoint" />
            <mxPoint x="440" y="200" as="targetPoint" />
          </mxGeometry>
        </mxCell>
        <mxCell id="SfzJ7EL2owrFxrRgeNwD-11" style="edgeStyle=orthogonalEdgeStyle;rounded=0;orthogonalLoop=1;jettySize=auto;html=1;entryX=0.5;entryY=0;entryDx=0;entryDy=0;fontSize=24;" parent="1" source="SfzJ7EL2owrFxrRgeNwD-8" target="SfzJ7EL2owrFxrRgeNwD-10" edge="1">
          <mxGeometry relative="1" as="geometry" />
        </mxCell>
        <mxCell id="SfzJ7EL2owrFxrRgeNwD-8" value="They fill up&lt;br&gt;- Title&lt;br&gt;- Description&lt;br&gt;- Resolution Type" style="rounded=1;whiteSpace=wrap;html=1;" parent="1" vertex="1">
          <mxGeometry x="320" y="330" width="120" height="80" as="geometry" />
        </mxCell>
        <mxCell id="SfzJ7EL2owrFxrRgeNwD-12" style="edgeStyle=orthogonalEdgeStyle;rounded=0;orthogonalLoop=1;jettySize=auto;html=1;entryX=0.5;entryY=0;entryDx=0;entryDy=0;fontSize=24;" parent="1" source="SfzJ7EL2owrFxrRgeNwD-10" target="XAJLCv4GIIp7jU_rk82d-4" edge="1">
          <mxGeometry relative="1" as="geometry">
            <mxPoint x="380" y="630" as="targetPoint" />
          </mxGeometry>
        </mxCell>
        <mxCell id="SfzJ7EL2owrFxrRgeNwD-10" value="They save the pre-draft, signing the transaction with their wallet" style="rounded=1;whiteSpace=wrap;html=1;" parent="1" vertex="1">
          <mxGeometry x="320" y="490" width="120" height="80" as="geometry" />
        </mxCell>
        <mxCell id="XAJLCv4GIIp7jU_rk82d-7" style="edgeStyle=orthogonalEdgeStyle;rounded=0;orthogonalLoop=1;jettySize=auto;html=1;entryX=0.5;entryY=0;entryDx=0;entryDy=0;fontFamily=Helvetica;fontSize=12;" edge="1" parent="1" source="XAJLCv4GIIp7jU_rk82d-4" target="XAJLCv4GIIp7jU_rk82d-6">
          <mxGeometry relative="1" as="geometry" />
        </mxCell>
        <mxCell id="XAJLCv4GIIp7jU_rk82d-4" value="&lt;font style=&quot;font-size: 12px;&quot;&gt;document is stored on blockchain and ipfs and email is sent to managing board&lt;/font&gt;" style="rounded=1;whiteSpace=wrap;html=1;shadow=0;fontFamily=Helvetica;fontSize=10;gradientColor=none;" vertex="1" parent="1">
          <mxGeometry x="290" y="660" width="180" height="80" as="geometry" />
        </mxCell>
        <mxCell id="XAJLCv4GIIp7jU_rk82d-9" style="edgeStyle=orthogonalEdgeStyle;rounded=0;orthogonalLoop=1;jettySize=auto;html=1;entryX=0.5;entryY=0;entryDx=0;entryDy=0;fontFamily=Helvetica;fontSize=12;" edge="1" parent="1" source="XAJLCv4GIIp7jU_rk82d-6" target="XAJLCv4GIIp7jU_rk82d-8">
          <mxGeometry relative="1" as="geometry" />
        </mxCell>
        <mxCell id="XAJLCv4GIIp7jU_rk82d-6" value="&lt;font style=&quot;font-size: 12px;&quot;&gt;a member of the managing board (MB) reviews the pre-draft resolution&lt;/font&gt;" style="rounded=1;whiteSpace=wrap;html=1;shadow=0;fontFamily=Helvetica;fontSize=10;gradientColor=none;" vertex="1" parent="1">
          <mxGeometry x="290" y="810" width="180" height="80" as="geometry" />
        </mxCell>
        <mxCell id="XAJLCv4GIIp7jU_rk82d-12" style="edgeStyle=orthogonalEdgeStyle;rounded=0;orthogonalLoop=1;jettySize=auto;html=1;entryX=0;entryY=0.5;entryDx=0;entryDy=0;fontFamily=Helvetica;fontSize=12;" edge="1" parent="1" source="XAJLCv4GIIp7jU_rk82d-8" target="XAJLCv4GIIp7jU_rk82d-11">
          <mxGeometry relative="1" as="geometry" />
        </mxCell>
        <mxCell id="XAJLCv4GIIp7jU_rk82d-13" value="No" style="edgeLabel;html=1;align=center;verticalAlign=middle;resizable=0;points=[];fontSize=12;fontFamily=Helvetica;" vertex="1" connectable="0" parent="XAJLCv4GIIp7jU_rk82d-12">
          <mxGeometry x="-0.2462" relative="1" as="geometry">
            <mxPoint as="offset" />
          </mxGeometry>
        </mxCell>
        <mxCell id="XAJLCv4GIIp7jU_rk82d-21" style="edgeStyle=orthogonalEdgeStyle;rounded=0;orthogonalLoop=1;jettySize=auto;html=1;fontFamily=Helvetica;fontSize=12;" edge="1" parent="1" source="XAJLCv4GIIp7jU_rk82d-8" target="XAJLCv4GIIp7jU_rk82d-19">
          <mxGeometry relative="1" as="geometry" />
        </mxCell>
        <mxCell id="XAJLCv4GIIp7jU_rk82d-22" value="Yes" style="edgeLabel;html=1;align=center;verticalAlign=middle;resizable=0;points=[];fontSize=12;fontFamily=Helvetica;" vertex="1" connectable="0" parent="XAJLCv4GIIp7jU_rk82d-21">
          <mxGeometry x="-0.4113" y="-1" relative="1" as="geometry">
            <mxPoint as="offset" />
          </mxGeometry>
        </mxCell>
        <mxCell id="XAJLCv4GIIp7jU_rk82d-8" value="Is it ok?" style="rhombus;whiteSpace=wrap;html=1;fillColor=#fff2cc;strokeColor=#d6b656;shadow=0;" vertex="1" parent="1">
          <mxGeometry x="330" y="970" width="100" height="90" as="geometry" />
        </mxCell>
        <mxCell id="XAJLCv4GIIp7jU_rk82d-15" style="edgeStyle=orthogonalEdgeStyle;rounded=0;orthogonalLoop=1;jettySize=auto;html=1;fontFamily=Helvetica;fontSize=12;" edge="1" parent="1" source="XAJLCv4GIIp7jU_rk82d-11" target="XAJLCv4GIIp7jU_rk82d-14">
          <mxGeometry relative="1" as="geometry" />
        </mxCell>
        <mxCell id="XAJLCv4GIIp7jU_rk82d-16" value="Yes" style="edgeLabel;html=1;align=center;verticalAlign=middle;resizable=0;points=[];fontSize=12;fontFamily=Helvetica;" vertex="1" connectable="0" parent="XAJLCv4GIIp7jU_rk82d-15">
          <mxGeometry x="-0.075" relative="1" as="geometry">
            <mxPoint as="offset" />
          </mxGeometry>
        </mxCell>
        <mxCell id="XAJLCv4GIIp7jU_rk82d-18" value="No" style="edgeStyle=orthogonalEdgeStyle;rounded=0;orthogonalLoop=1;jettySize=auto;html=1;entryX=0;entryY=0.5;entryDx=0;entryDy=0;fontFamily=Helvetica;fontSize=12;" edge="1" parent="1" source="XAJLCv4GIIp7jU_rk82d-11" target="XAJLCv4GIIp7jU_rk82d-17">
          <mxGeometry relative="1" as="geometry" />
        </mxCell>
        <mxCell id="XAJLCv4GIIp7jU_rk82d-11" value="Can it be amended?" style="rhombus;whiteSpace=wrap;html=1;fillColor=#fff2cc;strokeColor=#d6b656;shadow=0;" vertex="1" parent="1">
          <mxGeometry x="560" y="970" width="100" height="90" as="geometry" />
        </mxCell>
        <mxCell id="XAJLCv4GIIp7jU_rk82d-20" style="edgeStyle=orthogonalEdgeStyle;rounded=0;orthogonalLoop=1;jettySize=auto;html=1;entryX=0.5;entryY=1;entryDx=0;entryDy=0;fontFamily=Helvetica;fontSize=12;exitX=0;exitY=0.5;exitDx=0;exitDy=0;" edge="1" parent="1" source="XAJLCv4GIIp7jU_rk82d-24" target="XAJLCv4GIIp7jU_rk82d-8">
          <mxGeometry relative="1" as="geometry" />
        </mxCell>
        <mxCell id="XAJLCv4GIIp7jU_rk82d-25" style="edgeStyle=orthogonalEdgeStyle;rounded=0;orthogonalLoop=1;jettySize=auto;html=1;entryX=0.5;entryY=0;entryDx=0;entryDy=0;fontFamily=Helvetica;fontSize=12;" edge="1" parent="1" source="XAJLCv4GIIp7jU_rk82d-14" target="XAJLCv4GIIp7jU_rk82d-24">
          <mxGeometry relative="1" as="geometry" />
        </mxCell>
        <mxCell id="XAJLCv4GIIp7jU_rk82d-14" value="&lt;span style=&quot;font-size: 12px;&quot;&gt;MB updates pre-draft resolution&lt;/span&gt;" style="rounded=1;whiteSpace=wrap;html=1;shadow=0;fontFamily=Helvetica;fontSize=10;gradientColor=none;" vertex="1" parent="1">
          <mxGeometry x="520" y="1140" width="180" height="80" as="geometry" />
        </mxCell>
        <mxCell id="XAJLCv4GIIp7jU_rk82d-17" value="&lt;span style=&quot;font-size: 12px;&quot;&gt;End&lt;/span&gt;" style="rounded=1;whiteSpace=wrap;html=1;shadow=0;fontFamily=Helvetica;fontSize=10;fillColor=#f8cecc;strokeColor=#b85450;" vertex="1" parent="1">
          <mxGeometry x="737" y="982.5" width="90" height="65" as="geometry" />
        </mxCell>
        <mxCell id="XAJLCv4GIIp7jU_rk82d-26" style="edgeStyle=orthogonalEdgeStyle;rounded=0;orthogonalLoop=1;jettySize=auto;html=1;entryX=0.5;entryY=0;entryDx=0;entryDy=0;fontFamily=Helvetica;fontSize=12;" edge="1" parent="1" source="XAJLCv4GIIp7jU_rk82d-19" target="XAJLCv4GIIp7jU_rk82d-27">
          <mxGeometry relative="1" as="geometry">
            <mxPoint x="210" y="1310" as="targetPoint" />
          </mxGeometry>
        </mxCell>
        <mxCell id="XAJLCv4GIIp7jU_rk82d-19" value="&lt;span style=&quot;font-size: 12px;&quot;&gt;MB exports pre-draft resolution as a PDF&lt;/span&gt;" style="rounded=1;whiteSpace=wrap;html=1;shadow=0;fontFamily=Helvetica;fontSize=10;gradientColor=none;" vertex="1" parent="1">
          <mxGeometry x="120" y="1140" width="180" height="80" as="geometry" />
        </mxCell>
        <mxCell id="XAJLCv4GIIp7jU_rk82d-24" value="&lt;span style=&quot;font-size: 12px;&quot;&gt;MB signs a transaction and stores new version of the resolution on the blockchain and ipfs&lt;/span&gt;" style="rounded=1;whiteSpace=wrap;html=1;shadow=0;fontFamily=Helvetica;fontSize=10;gradientColor=none;" vertex="1" parent="1">
          <mxGeometry x="520" y="1250" width="180" height="80" as="geometry" />
        </mxCell>
        <mxCell id="XAJLCv4GIIp7jU_rk82d-30" style="edgeStyle=orthogonalEdgeStyle;rounded=0;orthogonalLoop=1;jettySize=auto;html=1;entryX=0.5;entryY=0;entryDx=0;entryDy=0;fontFamily=Helvetica;fontSize=12;" edge="1" parent="1" source="XAJLCv4GIIp7jU_rk82d-27" target="XAJLCv4GIIp7jU_rk82d-29">
          <mxGeometry relative="1" as="geometry" />
        </mxCell>
        <mxCell id="XAJLCv4GIIp7jU_rk82d-27" value="&lt;span style=&quot;font-size: 12px;&quot;&gt;MB signs the PDF pre-draft resolution using DigiDoc&lt;/span&gt;" style="rounded=1;whiteSpace=wrap;html=1;shadow=0;fontFamily=Helvetica;fontSize=10;gradientColor=none;" vertex="1" parent="1">
          <mxGeometry x="120" y="1270" width="180" height="80" as="geometry" />
        </mxCell>
        <mxCell id="XAJLCv4GIIp7jU_rk82d-32" style="edgeStyle=orthogonalEdgeStyle;rounded=0;orthogonalLoop=1;jettySize=auto;html=1;entryX=0.5;entryY=0;entryDx=0;entryDy=0;fontFamily=Helvetica;fontSize=12;" edge="1" parent="1" source="XAJLCv4GIIp7jU_rk82d-29" target="XAJLCv4GIIp7jU_rk82d-31">
          <mxGeometry relative="1" as="geometry" />
        </mxCell>
        <mxCell id="XAJLCv4GIIp7jU_rk82d-29" value="&lt;span style=&quot;font-size: 12px;&quot;&gt;MB approves the pre-draft resolution&lt;/span&gt;" style="rounded=1;whiteSpace=wrap;html=1;shadow=0;fontFamily=Helvetica;fontSize=10;gradientColor=none;" vertex="1" parent="1">
          <mxGeometry x="120" y="1400" width="180" height="60" as="geometry" />
        </mxCell>
        <mxCell id="XAJLCv4GIIp7jU_rk82d-34" style="edgeStyle=orthogonalEdgeStyle;rounded=0;orthogonalLoop=1;jettySize=auto;html=1;entryX=0.5;entryY=0;entryDx=0;entryDy=0;fontFamily=Helvetica;fontSize=12;" edge="1" parent="1" source="XAJLCv4GIIp7jU_rk82d-31" target="XAJLCv4GIIp7jU_rk82d-33">
          <mxGeometry relative="1" as="geometry" />
        </mxCell>
        <mxCell id="XAJLCv4GIIp7jU_rk82d-31" value="&lt;span style=&quot;font-size: 12px;&quot;&gt;MB signs a transaction and sets the pre-draft resolution as approved on blockchain. The pre-draft is now a draft&lt;/span&gt;" style="rounded=1;whiteSpace=wrap;html=1;shadow=0;fontFamily=Helvetica;fontSize=10;gradientColor=none;" vertex="1" parent="1">
          <mxGeometry x="120" y="1510" width="180" height="90" as="geometry" />
        </mxCell>
        <mxCell id="XAJLCv4GIIp7jU_rk82d-37" style="edgeStyle=orthogonalEdgeStyle;rounded=0;orthogonalLoop=1;jettySize=auto;html=1;entryX=0.5;entryY=0;entryDx=0;entryDy=0;fontFamily=Helvetica;fontSize=12;" edge="1" parent="1" source="XAJLCv4GIIp7jU_rk82d-33" target="XAJLCv4GIIp7jU_rk82d-35">
          <mxGeometry relative="1" as="geometry">
            <mxPoint x="210" y="1790" as="targetPoint" />
          </mxGeometry>
        </mxCell>
        <mxCell id="XAJLCv4GIIp7jU_rk82d-33" value="&lt;span style=&quot;font-size: 12px;&quot;&gt;Email is automatically sent to all users that are contributors at the time of the transaction&lt;/span&gt;" style="rounded=1;whiteSpace=wrap;html=1;shadow=0;fontFamily=Helvetica;fontSize=10;gradientColor=none;" vertex="1" parent="1">
          <mxGeometry x="120" y="1660" width="180" height="90" as="geometry" />
        </mxCell>
        <mxCell id="XAJLCv4GIIp7jU_rk82d-45" value="Yes" style="edgeStyle=orthogonalEdgeStyle;rounded=0;orthogonalLoop=1;jettySize=auto;html=1;entryX=1;entryY=0.414;entryDx=0;entryDy=0;entryPerimeter=0;fontFamily=Helvetica;fontSize=12;" edge="1" parent="1" source="XAJLCv4GIIp7jU_rk82d-35" target="XAJLCv4GIIp7jU_rk82d-42">
          <mxGeometry relative="1" as="geometry" />
        </mxCell>
        <mxCell id="XAJLCv4GIIp7jU_rk82d-47" style="edgeStyle=orthogonalEdgeStyle;rounded=0;orthogonalLoop=1;jettySize=auto;html=1;entryX=0;entryY=0.5;entryDx=0;entryDy=0;fontFamily=Helvetica;fontSize=12;" edge="1" parent="1" source="XAJLCv4GIIp7jU_rk82d-35" target="XAJLCv4GIIp7jU_rk82d-48">
          <mxGeometry relative="1" as="geometry">
            <mxPoint x="350" y="1870" as="targetPoint" />
          </mxGeometry>
        </mxCell>
        <mxCell id="XAJLCv4GIIp7jU_rk82d-50" value="No" style="edgeLabel;html=1;align=center;verticalAlign=middle;resizable=0;points=[];fontSize=12;fontFamily=Helvetica;" vertex="1" connectable="0" parent="XAJLCv4GIIp7jU_rk82d-47">
          <mxGeometry x="-0.2909" y="4" relative="1" as="geometry">
            <mxPoint as="offset" />
          </mxGeometry>
        </mxCell>
        <mxCell id="XAJLCv4GIIp7jU_rk82d-35" value="Is notice period?" style="rhombus;whiteSpace=wrap;html=1;shadow=0;fontFamily=Helvetica;fontSize=12;fillColor=#fff2cc;strokeColor=#d6b656;" vertex="1" parent="1">
          <mxGeometry x="170" y="1830" width="80" height="80" as="geometry" />
        </mxCell>
        <mxCell id="XAJLCv4GIIp7jU_rk82d-44" style="edgeStyle=orthogonalEdgeStyle;rounded=0;orthogonalLoop=1;jettySize=auto;html=1;entryX=0.5;entryY=1;entryDx=0;entryDy=0;fontFamily=Helvetica;fontSize=12;" edge="1" parent="1" source="XAJLCv4GIIp7jU_rk82d-42" target="XAJLCv4GIIp7jU_rk82d-35">
          <mxGeometry relative="1" as="geometry">
            <Array as="points">
              <mxPoint x="210" y="1960" />
            </Array>
          </mxGeometry>
        </mxCell>
        <mxCell id="XAJLCv4GIIp7jU_rk82d-42" value="&lt;span style=&quot;font-size: 12px;&quot;&gt;Contributor cannot vote&lt;/span&gt;" style="rounded=1;whiteSpace=wrap;html=1;shadow=0;fontFamily=Helvetica;fontSize=10;gradientColor=none;" vertex="1" parent="1">
          <mxGeometry x="-20" y="1840" width="120" height="70" as="geometry" />
        </mxCell>
        <mxCell id="XAJLCv4GIIp7jU_rk82d-52" value="Yes" style="edgeStyle=orthogonalEdgeStyle;rounded=0;orthogonalLoop=1;jettySize=auto;html=1;fontFamily=Helvetica;fontSize=12;" edge="1" parent="1" source="XAJLCv4GIIp7jU_rk82d-48" target="XAJLCv4GIIp7jU_rk82d-51">
          <mxGeometry relative="1" as="geometry" />
        </mxCell>
        <mxCell id="XAJLCv4GIIp7jU_rk82d-58" style="edgeStyle=orthogonalEdgeStyle;rounded=0;orthogonalLoop=1;jettySize=auto;html=1;entryX=0.5;entryY=0;entryDx=0;entryDy=0;fontFamily=Helvetica;fontSize=12;" edge="1" parent="1" source="XAJLCv4GIIp7jU_rk82d-48" target="XAJLCv4GIIp7jU_rk82d-57">
          <mxGeometry relative="1" as="geometry" />
        </mxCell>
        <mxCell id="XAJLCv4GIIp7jU_rk82d-59" value="No" style="edgeLabel;html=1;align=center;verticalAlign=middle;resizable=0;points=[];fontSize=12;fontFamily=Helvetica;" vertex="1" connectable="0" parent="XAJLCv4GIIp7jU_rk82d-58">
          <mxGeometry x="-0.2667" y="2" relative="1" as="geometry">
            <mxPoint y="1" as="offset" />
          </mxGeometry>
        </mxCell>
        <mxCell id="XAJLCv4GIIp7jU_rk82d-48" value="Is voting period?" style="rhombus;whiteSpace=wrap;html=1;shadow=0;fontFamily=Helvetica;fontSize=12;fillColor=#fff2cc;strokeColor=#d6b656;" vertex="1" parent="1">
          <mxGeometry x="360" y="1830" width="80" height="80" as="geometry" />
        </mxCell>
        <mxCell id="XAJLCv4GIIp7jU_rk82d-60" style="edgeStyle=orthogonalEdgeStyle;rounded=0;orthogonalLoop=1;jettySize=auto;html=1;entryX=1;entryY=0.5;entryDx=0;entryDy=0;fontFamily=Helvetica;fontSize=12;" edge="1" parent="1" source="XAJLCv4GIIp7jU_rk82d-51" target="XAJLCv4GIIp7jU_rk82d-57">
          <mxGeometry relative="1" as="geometry">
            <Array as="points">
              <mxPoint x="610" y="2050" />
            </Array>
          </mxGeometry>
        </mxCell>
        <mxCell id="XAJLCv4GIIp7jU_rk82d-51" value="&lt;span style=&quot;font-size: 12px;&quot;&gt;Contributors updates vote&lt;/span&gt;" style="rounded=1;whiteSpace=wrap;html=1;shadow=0;fontFamily=Helvetica;fontSize=10;gradientColor=none;" vertex="1" parent="1">
          <mxGeometry x="560" y="1835" width="120" height="70" as="geometry" />
        </mxCell>
        <mxCell id="XAJLCv4GIIp7jU_rk82d-61" style="edgeStyle=orthogonalEdgeStyle;rounded=0;orthogonalLoop=1;jettySize=auto;html=1;entryX=0;entryY=1;entryDx=0;entryDy=0;fontFamily=Helvetica;fontSize=12;" edge="1" parent="1" source="XAJLCv4GIIp7jU_rk82d-57" target="XAJLCv4GIIp7jU_rk82d-48">
          <mxGeometry relative="1" as="geometry">
            <Array as="points">
              <mxPoint x="340" y="2050" />
              <mxPoint x="340" y="1960" />
              <mxPoint x="380" y="1960" />
            </Array>
          </mxGeometry>
        </mxCell>
        <mxCell id="XAJLCv4GIIp7jU_rk82d-62" value="No" style="edgeLabel;html=1;align=center;verticalAlign=middle;resizable=0;points=[];fontSize=12;fontFamily=Helvetica;" vertex="1" connectable="0" parent="XAJLCv4GIIp7jU_rk82d-61">
          <mxGeometry x="-0.3727" y="-3" relative="1" as="geometry">
            <mxPoint as="offset" />
          </mxGeometry>
        </mxCell>
        <mxCell id="XAJLCv4GIIp7jU_rk82d-64" style="edgeStyle=orthogonalEdgeStyle;rounded=0;orthogonalLoop=1;jettySize=auto;html=1;fontFamily=Helvetica;fontSize=12;entryX=0.5;entryY=0;entryDx=0;entryDy=0;" edge="1" parent="1" source="XAJLCv4GIIp7jU_rk82d-57" target="XAJLCv4GIIp7jU_rk82d-74">
          <mxGeometry relative="1" as="geometry">
            <mxPoint x="400" y="2180" as="targetPoint" />
            <Array as="points">
              <mxPoint x="400" y="2170" />
              <mxPoint x="400" y="2170" />
            </Array>
          </mxGeometry>
        </mxCell>
        <mxCell id="XAJLCv4GIIp7jU_rk82d-65" value="Yes" style="edgeLabel;html=1;align=center;verticalAlign=middle;resizable=0;points=[];fontSize=12;fontFamily=Helvetica;" vertex="1" connectable="0" parent="XAJLCv4GIIp7jU_rk82d-64">
          <mxGeometry x="-0.2222" y="-2" relative="1" as="geometry">
            <mxPoint as="offset" />
          </mxGeometry>
        </mxCell>
        <mxCell id="XAJLCv4GIIp7jU_rk82d-57" value="Is resolution ended?" style="rhombus;whiteSpace=wrap;html=1;shadow=0;fontFamily=Helvetica;fontSize=12;fillColor=#fff2cc;strokeColor=#d6b656;" vertex="1" parent="1">
          <mxGeometry x="360" y="2010" width="80" height="80" as="geometry" />
        </mxCell>
        <mxCell id="XAJLCv4GIIp7jU_rk82d-83" style="edgeStyle=orthogonalEdgeStyle;rounded=0;orthogonalLoop=1;jettySize=auto;html=1;entryX=0.017;entryY=0.625;entryDx=0;entryDy=0;entryPerimeter=0;fontFamily=Helvetica;fontSize=12;" edge="1" parent="1" source="XAJLCv4GIIp7jU_rk82d-66" target="XAJLCv4GIIp7jU_rk82d-82">
          <mxGeometry relative="1" as="geometry" />
        </mxCell>
        <mxCell id="XAJLCv4GIIp7jU_rk82d-85" value="No" style="edgeLabel;html=1;align=center;verticalAlign=middle;resizable=0;points=[];fontSize=12;fontFamily=Helvetica;" vertex="1" connectable="0" parent="XAJLCv4GIIp7jU_rk82d-83">
          <mxGeometry x="-0.3908" relative="1" as="geometry">
            <mxPoint y="1" as="offset" />
          </mxGeometry>
        </mxCell>
        <mxCell id="XAJLCv4GIIp7jU_rk82d-84" style="edgeStyle=orthogonalEdgeStyle;rounded=0;orthogonalLoop=1;jettySize=auto;html=1;entryX=0.5;entryY=0;entryDx=0;entryDy=0;fontFamily=Helvetica;fontSize=12;" edge="1" parent="1" source="XAJLCv4GIIp7jU_rk82d-66" target="XAJLCv4GIIp7jU_rk82d-72">
          <mxGeometry relative="1" as="geometry" />
        </mxCell>
        <mxCell id="XAJLCv4GIIp7jU_rk82d-86" value="Yes" style="edgeLabel;html=1;align=center;verticalAlign=middle;resizable=0;points=[];fontSize=12;fontFamily=Helvetica;" vertex="1" connectable="0" parent="XAJLCv4GIIp7jU_rk82d-84">
          <mxGeometry x="-0.2125" y="-1" relative="1" as="geometry">
            <mxPoint as="offset" />
          </mxGeometry>
        </mxCell>
        <mxCell id="XAJLCv4GIIp7jU_rk82d-66" value="Did resolution pass?" style="rhombus;whiteSpace=wrap;html=1;shadow=0;fontFamily=Helvetica;fontSize=12;fillColor=#fff2cc;strokeColor=#d6b656;" vertex="1" parent="1">
          <mxGeometry x="345" y="2460" width="110" height="100" as="geometry" />
        </mxCell>
        <mxCell id="XAJLCv4GIIp7jU_rk82d-88" value="Yes" style="edgeStyle=orthogonalEdgeStyle;rounded=0;orthogonalLoop=1;jettySize=auto;html=1;entryX=0;entryY=0.5;entryDx=0;entryDy=0;fontFamily=Helvetica;fontSize=12;" edge="1" parent="1" source="XAJLCv4GIIp7jU_rk82d-72" target="XAJLCv4GIIp7jU_rk82d-87">
          <mxGeometry relative="1" as="geometry" />
        </mxCell>
        <mxCell id="XAJLCv4GIIp7jU_rk82d-91" style="edgeStyle=orthogonalEdgeStyle;rounded=0;orthogonalLoop=1;jettySize=auto;html=1;fontFamily=Helvetica;fontSize=12;entryX=0.5;entryY=0;entryDx=0;entryDy=0;" edge="1" parent="1" source="XAJLCv4GIIp7jU_rk82d-72" target="XAJLCv4GIIp7jU_rk82d-92">
          <mxGeometry relative="1" as="geometry">
            <mxPoint x="400" y="2870" as="targetPoint" />
          </mxGeometry>
        </mxCell>
        <mxCell id="XAJLCv4GIIp7jU_rk82d-93" value="No" style="edgeLabel;html=1;align=center;verticalAlign=middle;resizable=0;points=[];fontSize=12;fontFamily=Helvetica;" vertex="1" connectable="0" parent="XAJLCv4GIIp7jU_rk82d-91">
          <mxGeometry x="-0.05" relative="1" as="geometry">
            <mxPoint as="offset" />
          </mxGeometry>
        </mxCell>
        <mxCell id="XAJLCv4GIIp7jU_rk82d-72" value="Can resolution be executed automatically?" style="rhombus;whiteSpace=wrap;html=1;shadow=0;fontFamily=Helvetica;fontSize=12;fillColor=#fff2cc;strokeColor=#d6b656;" vertex="1" parent="1">
          <mxGeometry x="327.5" y="2640" width="145" height="130" as="geometry" />
        </mxCell>
        <mxCell id="XAJLCv4GIIp7jU_rk82d-73" style="edgeStyle=orthogonalEdgeStyle;rounded=0;orthogonalLoop=1;jettySize=auto;html=1;entryX=0.5;entryY=0;entryDx=0;entryDy=0;fontFamily=Helvetica;fontSize=12;" edge="1" parent="1" source="XAJLCv4GIIp7jU_rk82d-74" target="XAJLCv4GIIp7jU_rk82d-75">
          <mxGeometry relative="1" as="geometry">
            <mxPoint x="670" y="2350" as="targetPoint" />
          </mxGeometry>
        </mxCell>
        <mxCell id="XAJLCv4GIIp7jU_rk82d-74" value="&lt;span style=&quot;font-size: 12px;&quot;&gt;MB exports resolution as a PDF&lt;/span&gt;" style="rounded=1;whiteSpace=wrap;html=1;shadow=0;fontFamily=Helvetica;fontSize=10;gradientColor=none;" vertex="1" parent="1">
          <mxGeometry x="310" y="2180" width="180" height="80" as="geometry" />
        </mxCell>
        <mxCell id="XAJLCv4GIIp7jU_rk82d-81" style="edgeStyle=orthogonalEdgeStyle;rounded=0;orthogonalLoop=1;jettySize=auto;html=1;entryX=0.5;entryY=0;entryDx=0;entryDy=0;fontFamily=Helvetica;fontSize=12;" edge="1" parent="1" source="XAJLCv4GIIp7jU_rk82d-75" target="XAJLCv4GIIp7jU_rk82d-66">
          <mxGeometry relative="1" as="geometry" />
        </mxCell>
        <mxCell id="XAJLCv4GIIp7jU_rk82d-75" value="&lt;span style=&quot;font-size: 12px;&quot;&gt;MB signs the PDF resolution using DigiDoc&lt;/span&gt;" style="rounded=1;whiteSpace=wrap;html=1;shadow=0;fontFamily=Helvetica;fontSize=10;gradientColor=none;" vertex="1" parent="1">
          <mxGeometry x="310" y="2310" width="180" height="80" as="geometry" />
        </mxCell>
        <mxCell id="XAJLCv4GIIp7jU_rk82d-82" value="&lt;span style=&quot;font-size: 12px;&quot;&gt;End&lt;/span&gt;" style="rounded=1;whiteSpace=wrap;html=1;shadow=0;fontFamily=Helvetica;fontSize=10;fillColor=#f8cecc;strokeColor=#b85450;" vertex="1" parent="1">
          <mxGeometry x="557" y="2460" width="180" height="80" as="geometry" />
        </mxCell>
        <mxCell id="XAJLCv4GIIp7jU_rk82d-90" style="edgeStyle=orthogonalEdgeStyle;rounded=0;orthogonalLoop=1;jettySize=auto;html=1;entryX=0.5;entryY=0;entryDx=0;entryDy=0;fontFamily=Helvetica;fontSize=12;" edge="1" parent="1" source="XAJLCv4GIIp7jU_rk82d-87" target="XAJLCv4GIIp7jU_rk82d-89">
          <mxGeometry relative="1" as="geometry" />
        </mxCell>
        <mxCell id="XAJLCv4GIIp7jU_rk82d-87" value="&lt;span style=&quot;font-size: 12px;&quot;&gt;Anyone can sign the transaction to execute the resolution on the blockchain&lt;/span&gt;" style="rounded=1;whiteSpace=wrap;html=1;shadow=0;fontFamily=Helvetica;fontSize=10;gradientColor=none;" vertex="1" parent="1">
          <mxGeometry x="545" y="2665" width="180" height="80" as="geometry" />
        </mxCell>
        <mxCell id="XAJLCv4GIIp7jU_rk82d-89" value="&lt;span style=&quot;font-size: 12px;&quot;&gt;End&lt;/span&gt;" style="rounded=1;whiteSpace=wrap;html=1;shadow=0;fontFamily=Helvetica;fontSize=10;fillColor=#f8cecc;strokeColor=#b85450;" vertex="1" parent="1">
          <mxGeometry x="545" y="2800" width="180" height="80" as="geometry" />
        </mxCell>
        <mxCell id="XAJLCv4GIIp7jU_rk82d-95" style="edgeStyle=orthogonalEdgeStyle;rounded=0;orthogonalLoop=1;jettySize=auto;html=1;entryX=0.5;entryY=0;entryDx=0;entryDy=0;fontFamily=Helvetica;fontSize=12;" edge="1" parent="1" source="XAJLCv4GIIp7jU_rk82d-92" target="XAJLCv4GIIp7jU_rk82d-94">
          <mxGeometry relative="1" as="geometry" />
        </mxCell>
        <mxCell id="XAJLCv4GIIp7jU_rk82d-92" value="&lt;span style=&quot;font-size: 12px;&quot;&gt;MB executes the will of the resolution &quot;manually&quot;&lt;/span&gt;" style="rounded=1;whiteSpace=wrap;html=1;shadow=0;fontFamily=Helvetica;fontSize=10;gradientColor=none;" vertex="1" parent="1">
          <mxGeometry x="310" y="2880" width="180" height="80" as="geometry" />
        </mxCell>
        <mxCell id="XAJLCv4GIIp7jU_rk82d-94" value="&lt;span style=&quot;font-size: 12px;&quot;&gt;End&lt;/span&gt;" style="rounded=1;whiteSpace=wrap;html=1;shadow=0;fontFamily=Helvetica;fontSize=10;fillColor=#f8cecc;strokeColor=#b85450;" vertex="1" parent="1">
          <mxGeometry x="310" y="3010" width="180" height="80" as="geometry" />
        </mxCell>
      </root>
    </mxGraphModel>
  </diagram>
</mxfile>
